<?xml version="1.0" encoding="iso-8859-1"?>
<!-- Generator: Adobe Illustrator 24.2.1, SVG Export Plug-In . SVG Version: 6.00 Build 0)  -->
<svg version="1.1" id="Layer_1" xmlns="http://www.w3.org/2000/svg" xmlns:xlink="http://www.w3.org/1999/xlink" x="0px" y="0px"
	 viewBox="0 0 1080 1080" style="enable-background:new 0 0 1080 1080;" xml:space="preserve">
<g>
	<path style="fill:#FFFFFF;" d="M1122.54,1254.705c0-6.654,0-12.124,0-17.935c17.505,0,34.747,0,52.407,0
		c0,58.188,0,116.394,0,174.877c-17.434,0-34.68,0-52.378,0c0-5.738,0-11.32,0-17.608c-3.63,3.939-6.412,7.609-9.829,10.539
		c-9.431,8.088-20.809,11.91-32.941,12.993c-55.128,4.92-90.662-32.293-96.378-79.934c-2.204-18.369-0.009-36.188,6.861-53.99
		c-9.356,0.013-18.029,0.835-26.217,4.432c-9.14,4.015-13.676,11.489-14.5,21.115c-0.581,6.791-0.478,13.649-0.492,20.477
		c-0.049,25.173-0.02,50.346-0.02,75.518c0,1.976,0,3.952,0,6.33c-17.638,0-34.85,0-52.435,0c0-58.05,0-116.135,0-174.569
		c16.197,0,32.445,0,49.308,0c0,5.179,0,10.42,0,15.662c0.328,0.239,0.656,0.478,0.985,0.717
		c9.534-17.023,24.631-22.99,43.349-22.776c0,16.984,0,33.759,0,50.533c13.121-24.779,32.402-41.968,59.78-48.118
		C1077.376,1226.828,1102.778,1229.967,1122.54,1254.705z M1078.779,1368.762c25.1-0.032,43.607-18.993,43.654-44.724
		c0.046-25.283-18.956-44.401-44.073-44.341c-24.467,0.058-42.874,19.368-42.847,44.948
		C1035.539,1349.46,1054.5,1368.793,1078.779,1368.762z"/>
	<path style="fill:#FFFFFF;" d="M162.042,1411.714c-17.824,0-34.94,0-52.805,0c0-2.067,0-3.992,0-5.917
		c0-30.004,0.107-60.009-0.094-90.012c-0.039-5.777-0.696-11.693-2.097-17.287c-2.973-11.871-10.733-17.804-22.983-18.568
		c-11.74-0.732-22.487,4.877-26.279,15.227c-2.411,6.58-3.831,13.885-3.93,20.889c-0.419,29.665-0.178,59.339-0.178,89.01
		c0,1.994,0,3.988,0,6.425c-17.434,0-34.652,0-52.339,0c0-58.081,0-116.276,0-174.766c16.173,0,32.253,0,48.779,0
		c0,5.596,0,11.035,0,16.473c12.91-17.899,30.89-23.32,51.569-22.607c21.613,0.745,36.824,11.785,47.473,30.084
		c4.23-4.715,7.968-9.355,12.186-13.506c28.485-28.026,91.327-22.71,105.3,27.375c3.25,11.651,3.374,24.388,3.546,36.645
		c0.456,32.498,0.154,65.007,0.143,97.511c0,0.81-0.114,1.62-0.205,2.824c-17.401,0-34.639,0-52.709,0c0-1.547,0-3.288,0-5.03
		c0-30.338,0.094-60.676-0.085-91.012c-0.033-5.615-0.606-11.358-1.907-16.808c-3.064-12.839-12.585-19.492-25.772-18.74
		c-16.166,0.922-25.455,9.624-27.11,25.769c-0.525,5.122-0.476,10.315-0.484,15.475c-0.042,28.004-0.02,56.008-0.02,84.012
		C162.042,1407.157,162.042,1409.134,162.042,1411.714z"/>
	<path style="fill:#FFFFFF;" d="M499.756,1236.457c0-19.609,0-38.559,0-57.962c17.685,0,34.899,0,52.715,0
		c0,19.017,0,38.078,0,57.724c8.649,0,16.724,0,25.435,0c0,7.954,0,15.348,0,23.287c1.113-0.586,1.611-0.688,1.844-0.993
		c18.066-23.667,42.714-30.337,70.964-27.198c14.919,1.658,28.425,6.913,39.329,17.69c10.072,9.955,14.629,22.349,16.108,36.537
		c-17.21,0-34.138,0-51.078,0c-4.231-10.909-10.453-14.65-20.741-12.429c-5.268,1.138-9.355,3.793-10.52,9.371
		c-1.113,5.332,1.774,9.368,5.984,11.639c6.247,3.37,12.879,6.135,19.568,8.548c10.002,3.608,20.379,6.212,30.274,10.07
		c43.911,17.123,37.099,66.932,13.926,86.731c-19.067,16.29-41.428,20.529-65.471,17.739c-17.493-2.03-33.177-8.509-45.135-22.143
		c-8.653-9.866-12.846-21.607-14.335-34.965c17.351,0,34.543,0,52.336,0c1.445,7.912,6.134,13.436,14.609,15.111
		c5.742,1.135,11.299,0.496,16.419-2.474c8.51-4.938,9.364-15.252,1.507-21.132c-3.281-2.455-7.118-4.34-10.951-5.851
		c-10.675-4.21-21.46-8.147-32.242-12.079c-9.788-3.57-18.939-8.171-26.54-15.479c-9.924-9.542-14.017-21.193-12.698-34.828
		c0.16-1.659,0.332-3.317,0.476-4.977c0.028-0.326-0.046-0.661-0.109-1.422c-5.985,0-12.019,0-18.605,0c0,44.744,0,89.497,0,134.6
		c-17.778,0-35.014,0-52.833,0c0-44.829,0-89.589,0-134.844c-8.654,0-16.748,0-25.29,0c0-13.524,0-26.561,0-40.271
		C482.849,1236.457,491.076,1236.457,499.756,1236.457z"/>
	<path style="fill:#FFFFFF;" d="M1562.857,1248.949c0-23.245,0-46.764,0-70.593c17.903,0,35.133,0,52.605,0
		c0,77.762,0,155.224,0,233.127c-16.492,0-33.003,0-50.027,0c0-5.637,0-11.191,0-18.243c-8.696,12.764-19.764,19.521-33.227,22.523
		c-48.719,10.867-93.812-17.543-104.563-66.532c-6.837-31.152-3.026-60.761,16.961-86.731
		c22.088-28.699,63.564-40.182,96.229-26.563C1548.491,1239.13,1555.281,1244.402,1562.857,1248.949z M1565.847,1323.424
		c0.015-24.61-18.949-43.591-43.685-43.726c-25.703-0.14-44.683,18.678-44.641,44.259c0.043,25.636,18.738,44.699,43.795,44.656
		C1546.859,1368.569,1565.832,1349.316,1565.847,1323.424z"/>
	<path style="fill:#FFFFFF;" d="M-86.798,1411.713c-17.426,0-34.529,0-52.294,0c0-5.729,0-11.266,0-18.186
		c-14.62,20.503-34.595,25.165-56.615,24.334c-24.321-0.918-44.871-10.284-60.864-28.859
		c-29.998-34.839-30.347-97.309,2.595-131.922c24.142-25.366,66.404-34.611,95.319-19.209c7.019,3.739,12.873,9.664,19.219,14.55
		c0-4.314,0-9.776,0-15.609c17.949,0,35.147,0,52.64,0C-86.798,1294.959-86.798,1353.044-86.798,1411.713z M-139.168,1323.992
		c-0.088-25.475-18.875-44.405-44.114-44.276c-26.417,0.135-42.526,20.465-42.88,44.98c-0.358,24.803,19.161,44.071,43.403,44.063
		C-157.692,1368.751-139.08,1349.637-139.168,1323.992z"/>
	<path style="fill:#FFFFFF;" d="M417.92,1254.42c0-6.704,0-12.111,0-17.752c17.685,0,34.797,0,52.337,0
		c0,58.195,0,116.382,0,174.913c-17.224,0-34.453,0-52.257,0c0-5.478,0-10.892,0-16.281c-0.864,0-1.327-0.12-1.422,0.017
		c-10.625,15.205-26.123,21.271-43.744,22.378c-49.339,3.099-87.109-28.314-93.505-77.455c-3.644-27.997,0.957-54.103,18.566-76.967
		c20.761-26.956,58.468-39.307,90.354-29.749C399.5,1236.897,406.059,1241.422,417.92,1254.42z M374.386,1368.756
		c25.076-0.08,43.633-19.211,43.483-44.829c-0.15-25.542-18.916-44.341-44.153-44.229c-24.505,0.109-42.737,19.37-42.669,45.078
		C331.111,1349.685,349.981,1368.833,374.386,1368.756z"/>
	<path style="fill:#FFFFFF;" d="M879.157,1411.656c-16.473,0-32.715,0-49.44,0c0-5.5,0-10.748,0-16.583
		c-0.955,0.648-1.437,0.803-1.626,1.129c-8.86,15.292-22.935,21.286-39.743,21.392c-8.245,0.052-16.743-0.515-24.706-2.494
		c-27.227-6.765-45.563-28.273-46.606-58.388c-1.377-39.757-0.339-79.598-0.339-119.757c17.246,0,34.474,0,52.355,0
		c0,1.962,0,3.916,0,5.87c0,28.83-0.014,57.66,0.016,86.49c0.004,4.16,0.169,8.322,0.358,12.478
		c0.861,18.916,13.283,29.178,32.036,26.504c14.98-2.136,23.962-12.107,24.925-28.419c0.559-9.468,0.454-18.98,0.479-28.473
		c0.06-22.83,0.02-45.661,0.02-68.492c0-1.959,0-3.917,0-6.092c17.708,0,34.812,0,52.271,0
		C879.157,1294.958,879.157,1353.025,879.157,1411.656z"/>
	<path style="fill:#FFFFFF;" d="M1257.546,1411.657c-18.109,0-35.353,0-53.068,0c0-45.01,0-89.755,0-135.046
		c-8.696,0-16.935,0-25.524,0c0-13.451,0-26.361,0-40.013c8.27,0,16.632,0,25.462,0c0-19.815,0-38.898,0-58.268
		c17.738,0,34.987,0,52.811,0c0,19.295,0,38.359,0,58c8.619,0,16.689,0,25.016,0c0,13.52,0,26.459,0,39.986
		c-8.022,0-16.089,0-24.697,0C1257.546,1321.626,1257.546,1366.355,1257.546,1411.657z"/>
	<path style="fill:#FFFFFF;" d="M-68.472,1178.373c17.215,0,34.292,0,51.759,0c0,77.653,0,155.193,0,233.142
		c-17.089,0-34.275,0-51.759,0C-68.472,1333.837-68.472,1256.274-68.472,1178.373z"/>
	<path style="fill:#FFFFFF;" d="M1363.589,1236.77c17.558,0,34.683,0,52.141,0c0,58.261,0,116.354,0,174.8
		c-17.372,0-34.59,0-52.141,0C1363.589,1353.398,1363.589,1295.322,1363.589,1236.77z"/>
	<path style="fill:#FFFFFF;" d="M1288.331,1358.362c18.054,0,35.799,0,53.957,0c0,17.691,0,35.227,0,53.164
		c-17.771,0-35.644,0-53.957,0C1288.331,1394.046,1288.331,1376.515,1288.331,1358.362z"/>
	<path style="fill:#FFFFFF;" d="M1415.71,1178.084c0,13.179,0,26.244,0,39.541c-17.393,0-34.507,0-52.037,0
		c0-13.092,0-26.139,0-39.541C1380.911,1178.084,1398.132,1178.084,1415.71,1178.084z"/>
</g>
</svg>
